<svg xmlns="http://www.w3.org/2000/svg" width="25" height="29" viewBox="0 0 25 29">
  <metadata><?xpacket begin="﻿" id="W5M0MpCehiHzreSzNTczkc9d"?>
<x:xmpmeta xmlns:x="adobe:ns:meta/" x:xmptk="Adobe XMP Core 5.6-c142 79.160924, 2017/07/13-01:06:39        ">
   <rdf:RDF xmlns:rdf="http://www.w3.org/1999/02/22-rdf-syntax-ns#">
      <rdf:Description rdf:about=""/>
   </rdf:RDF>
</x:xmpmeta>
                                                                                                    
                                                                                                    
                                                                                                    
                                                                                                    
                                                                                                    
                                                                                                    
                                                                                                    
                                                                                                    
                                                                                                    
                                                                                                    
                                                                                                    
                                                                                                    
                                                                                                    
                                                                                                    
                                                                                                    
                                                                                                    
                                                                                                    
                                                                                                    
                                                                                                    
                                                                                                    
                           
<?xpacket end="w"?></metadata>
<defs>
    <style>
      .cls-1 {
        fill: #4f4f59;
        fill-rule: evenodd;
        opacity: 0.5;
      }
    </style>
  </defs>
  <path class="cls-1" d="M1445.43,59.3a10.478,10.478,0,0,1-2-2.25,10.271,10.271,0,0,1-1.66-5.843c0.01-1.407,0-2.816,0-4.222a8.127,8.127,0,0,0-5.33-7.624,1.391,1.391,0,0,1-.69-0.29,1.932,1.932,0,0,1-.05-0.777,2.053,2.053,0,0,0-.92-1.85A5.59,5.59,0,0,0,1433.7,36h-0.39a5.561,5.561,0,0,0-1.08.447,2.053,2.053,0,0,0-.92,1.85,1.648,1.648,0,0,1-.05.777,1.462,1.462,0,0,1-.69.29,8.117,8.117,0,0,0-5.33,7.616c0,1.406-.01,2.816,0,4.222a10.342,10.342,0,0,1-1.65,5.843,10.752,10.752,0,0,1-2,2.248,1.414,1.414,0,0,0-.48,1.665,1.444,1.444,0,0,0,1.45.937h21.88a1.465,1.465,0,0,0,1.46-.937A1.422,1.422,0,0,0,1445.43,59.3ZM1432.77,38.01a0.757,0.757,0,0,1,1.47,0,6.327,6.327,0,0,1,.05.87h-1.57A6.327,6.327,0,0,1,1432.77,38.01ZM1422.4,60.473c0.13-.116.19-0.186,0.27-0.249a12.015,12.015,0,0,0,2.08-2.375,11.49,11.49,0,0,0,1.91-6.478V47.09a8.338,8.338,0,0,1,.11-1.32,6.868,6.868,0,0,1,13.47.012,9.711,9.711,0,0,1,.11,1.319v4.281a11.449,11.449,0,0,0,1.91,6.467,11.717,11.717,0,0,0,2.08,2.375c0.07,0.064.14,0.13,0.26,0.249h-22.2Zm12.89,3.625a2.551,2.551,0,0,1-1.35.9h-0.87a2.551,2.551,0,0,1-1.35-.9,2,2,0,0,1-.39-1.374h4.34A1.99,1.99,0,0,1,1435.29,64.1Z" transform="translate(-1421 -36)"/>
</svg>
