<svg xmlns="http://www.w3.org/2000/svg" width="21" height="21" viewBox="0 0 21 21">
  <metadata><?xpacket begin="﻿" id="W5M0MpCehiHzreSzNTczkc9d"?>
<x:xmpmeta xmlns:x="adobe:ns:meta/" x:xmptk="Adobe XMP Core 5.6-c142 79.160924, 2017/07/13-01:06:39        ">
   <rdf:RDF xmlns:rdf="http://www.w3.org/1999/02/22-rdf-syntax-ns#">
      <rdf:Description rdf:about=""/>
   </rdf:RDF>
</x:xmpmeta>
                                                                                                    
                                                                                                    
                                                                                                    
                                                                                                    
                                                                                                    
                                                                                                    
                                                                                                    
                                                                                                    
                                                                                                    
                                                                                                    
                                                                                                    
                                                                                                    
                                                                                                    
                                                                                                    
                                                                                                    
                                                                                                    
                                                                                                    
                                                                                                    
                                                                                                    
                                                                                                    
                           
<?xpacket end="w"?></metadata>
<defs>
    <style>
      .cls-1 {
        fill: #333;
        fill-rule: evenodd;
        opacity: 0.3;
      }
    </style>
  </defs>
  <path id="Forma_1" data-name="Forma 1" class="cls-1" d="M235.945,329.233l-0.15-.227-2.8-2.8a0.7,0.7,0,0,0-.99.989l1.605,1.605H226.2v-7.41l1.605,1.6a0.7,0.7,0,1,0,.99-0.99l-2.8-2.8-0.008,0-0.219-.145L225.5,319h0l-0.264.055-0.22.145-0.009,0-2.8,2.8a0.7,0.7,0,0,0,.99.99l1.606-1.6v7.41h-7.41l1.6-1.605a0.7,0.7,0,0,0-.99-0.989l-2.8,2.8,0,0.007-0.145.22L215,329.5v0l0.055,0.265,0.145,0.219,0,0.008,2.8,2.8a0.7,0.7,0,0,0,.99-0.99l-1.6-1.605h7.41v7.41l-1.605-1.605a0.7,0.7,0,1,0-.989.99l2.8,2.8,0.227,0.152L225.5,340h0l0.268-.055L226,339.8l2.8-2.8a0.7,0.7,0,1,0-.99-0.99L226.2,337.61V330.2h7.41l-1.605,1.605a0.7,0.7,0,0,0,.99.99l2.8-2.8,0.152-.227L236,329.5v0Z" transform="translate(-215 -319)"/>
</svg>
