<svg xmlns="http://www.w3.org/2000/svg" width="27.03" height="26" viewBox="0 0 27.03 26">
  <metadata><?xpacket begin="﻿" id="W5M0MpCehiHzreSzNTczkc9d"?>
<x:xmpmeta xmlns:x="adobe:ns:meta/" x:xmptk="Adobe XMP Core 5.6-c142 79.160924, 2017/07/13-01:06:39        ">
   <rdf:RDF xmlns:rdf="http://www.w3.org/1999/02/22-rdf-syntax-ns#">
      <rdf:Description rdf:about=""/>
   </rdf:RDF>
</x:xmpmeta>
                                                                                                    
                                                                                                    
                                                                                                    
                                                                                                    
                                                                                                    
                                                                                                    
                                                                                                    
                                                                                                    
                                                                                                    
                                                                                                    
                                                                                                    
                                                                                                    
                                                                                                    
                                                                                                    
                                                                                                    
                                                                                                    
                                                                                                    
                                                                                                    
                                                                                                    
                                                                                                    
                           
<?xpacket end="w"?></metadata>
<defs>
    <style>
      .cls-1 {
        fill: #4f4f59;
        fill-rule: evenodd;
        opacity: 0.5;
      }
    </style>
  </defs>
  <path class="cls-1" d="M1513.01,40.967A10.515,10.515,0,0,0,1505.42,38a10.316,10.316,0,0,0-7.45,3.249,10.5,10.5,0,0,0-2.97,7.582,10.69,10.69,0,0,0,10.65,10.449h0.22a10.854,10.854,0,0,0,6.98-2.772l7.52,7.231a0.88,0.88,0,0,0,.67.255,0.993,0.993,0,0,0,.7-0.287,0.954,0.954,0,0,0-.03-1.338l-7.62-7.3a10.811,10.811,0,0,0,2.2-6.658A10.523,10.523,0,0,0,1513.01,40.967Zm-7.21,16.406h-0.15a8.735,8.735,0,0,1-6.28-14.813,8.59,8.59,0,0,1,6.12-2.676h0.16a8.763,8.763,0,0,1,8.73,8.569A8.757,8.757,0,0,1,1505.8,57.373Z" transform="translate(-1495 -38)"/>
</svg>
